<svg width="40" height="40" viewBox="0 0 40 40" fill="none" xmlns="http://www.w3.org/2000/svg">
<g clip-path="url(#clip0_13303_14)">
<mask id="mask0_13303_14" style="mask-type:alpha" maskUnits="userSpaceOnUse" x="0" y="0" width="40" height="42">
<path d="M40 0H0V41.7778H40V0Z" fill="#D9D9D9"/>
</mask>
<g mask="url(#mask0_13303_14)">
<path d="M34.9998 22.6298H31.6665C31.1943 22.6298 30.7984 22.463 30.479 22.1294C30.1595 21.7957 29.9998 21.3823 29.9998 20.8892C29.9998 20.3959 30.1595 19.9824 30.479 19.6489C30.7984 19.3152 31.1943 19.1483 31.6665 19.1483H34.9998C35.472 19.1483 35.8679 19.3152 36.1873 19.6489C36.5068 19.9824 36.6665 20.3959 36.6665 20.8892C36.6665 21.3823 36.5068 21.7957 36.1873 22.1294C35.8679 22.463 35.472 22.6298 34.9998 22.6298ZM27.6665 29.2447C27.9443 28.8384 28.3054 28.6064 28.7498 28.5483C29.1943 28.4904 29.6109 28.6064 29.9998 28.8965L32.6665 30.9854C33.0554 31.2755 33.2776 31.6527 33.3331 32.1169C33.3886 32.5811 33.2776 33.0162 32.9998 33.4225C32.722 33.8286 32.3609 34.0606 31.9165 34.1187C31.472 34.1767 31.0554 34.0606 30.6665 33.7705L27.9998 31.6817C27.6109 31.3916 27.3886 31.0144 27.3331 30.5503C27.2776 30.086 27.3886 29.6509 27.6665 29.2447ZM32.6665 10.7928L29.9998 12.8817C29.6109 13.1718 29.1943 13.2878 28.7498 13.2299C28.3054 13.1718 27.9443 12.9397 27.6665 12.5335C27.3886 12.1274 27.2776 11.6922 27.3331 11.228C27.3886 10.7638 27.6109 10.3866 27.9998 10.0965L30.6665 8.00761C31.0554 7.71749 31.472 7.60144 31.9165 7.65946C32.3609 7.71749 32.722 7.9496 32.9998 8.35577C33.2776 8.76194 33.3886 9.19712 33.3331 9.66132C33.2776 10.1255 33.0554 10.5027 32.6665 10.7928ZM8.33313 26.1114H6.66647C5.7498 26.1114 4.96508 25.7704 4.3123 25.0886C3.65953 24.4068 3.33313 23.5872 3.33313 22.6298V19.1483C3.33313 18.191 3.65953 17.3713 4.3123 16.6896C4.96508 16.0078 5.7498 15.6669 6.66647 15.6669H13.3331L19.1248 12.0113C19.6804 11.6632 20.2429 11.6632 20.8123 12.0113C21.3818 12.3595 21.6665 12.8672 21.6665 13.5344V28.2437C21.6665 28.911 21.3818 29.4187 20.8123 29.7669C20.2429 30.115 19.6804 30.115 19.1248 29.7669L13.3331 26.1114H11.6665V31.3336C11.6665 31.8267 11.5067 32.2402 11.1873 32.5739C10.8679 32.9074 10.472 33.0743 9.99981 33.0743C9.52758 33.0743 9.13174 32.9074 8.81231 32.5739C8.49286 32.2402 8.33313 31.8267 8.33313 31.3336V26.1114ZM23.3331 26.7205V15.0576C24.0831 15.7539 24.6873 16.6025 25.1456 17.6035C25.604 18.6044 25.8331 19.6995 25.8331 20.8892C25.8331 22.0786 25.604 23.1739 25.1456 24.1747C24.6873 25.1757 24.0831 26.0243 23.3331 26.7205Z" fill="#FF6600"/>
</g>
</g>
<defs>
<clipPath id="clip0_13303_14">
<rect width="40" height="40" fill="white"/>
</clipPath>
</defs>
</svg>
