<svg width="16" height="16" viewBox="0 0 16 16" fill="none" xmlns="http://www.w3.org/2000/svg">
<mask id="mask0_290_638" style="mask-type:alpha" maskUnits="userSpaceOnUse" x="0" y="0" width="16" height="16">
<rect width="16" height="16" fill="#D9D9D9"/>
</mask>
<g mask="url(#mask0_290_638)">
<path d="M8.00004 13.55C7.84448 13.55 7.68615 13.5222 7.52504 13.4667C7.36393 13.4111 7.22226 13.3222 7.10004 13.2L5.95004 12.15C4.77226 11.0722 3.70837 10.0028 2.75837 8.94167C1.80837 7.88056 1.33337 6.71111 1.33337 5.43333C1.33337 4.38889 1.68337 3.51667 2.38337 2.81667C3.08337 2.11667 3.9556 1.76667 5.00004 1.76667C5.58893 1.76667 6.14448 1.89167 6.66671 2.14167C7.18893 2.39167 7.63337 2.73333 8.00004 3.16667C8.36671 2.73333 8.81115 2.39167 9.33337 2.14167C9.8556 1.89167 10.4112 1.76667 11 1.76667C12.0445 1.76667 12.9167 2.11667 13.6167 2.81667C14.3167 3.51667 14.6667 4.38889 14.6667 5.43333C14.6667 6.71111 14.1945 7.88333 13.25 8.95C12.3056 10.0167 11.2334 11.0889 10.0334 12.1667L8.90004 13.2C8.77782 13.3222 8.63615 13.4111 8.47504 13.4667C8.31393 13.5222 8.1556 13.55 8.00004 13.55Z" fill="#FF6600"/>
</g>
</svg>
