<svg width="16" height="16" viewBox="0 0 16 16" fill="none" xmlns="http://www.w3.org/2000/svg">
<mask id="mask0_283_50" style="mask-type:alpha" maskUnits="userSpaceOnUse" x="0" y="0" width="16" height="16">
<rect width="16" height="16" fill="#D9D9D9"/>
</mask>
<g mask="url(#mask0_283_50)">
<path d="M2.66671 13.3333C2.30004 13.3333 1.98615 13.2028 1.72504 12.9417C1.46393 12.6806 1.33337 12.3667 1.33337 12V4C1.33337 3.63333 1.46393 3.31944 1.72504 3.05833C1.98615 2.79722 2.30004 2.66667 2.66671 2.66667H13.3334C13.7 2.66667 14.0139 2.79722 14.275 3.05833C14.5362 3.31944 14.6667 3.63333 14.6667 4V12C14.6667 12.3667 14.5362 12.6806 14.275 12.9417C14.0139 13.2028 13.7 13.3333 13.3334 13.3333H2.66671ZM8.00004 8.55C8.0556 8.55 8.11393 8.54167 8.17504 8.525C8.23615 8.50833 8.29449 8.48333 8.35004 8.45L13.0667 5.5C13.1556 5.44444 13.2223 5.375 13.2667 5.29167C13.3112 5.20833 13.3334 5.11667 13.3334 5.01667C13.3334 4.79444 13.2389 4.62778 13.05 4.51667C12.8612 4.40556 12.6667 4.41111 12.4667 4.53333L8.00004 7.33333L3.53337 4.53333C3.33337 4.41111 3.13893 4.40833 2.95004 4.525C2.76115 4.64167 2.66671 4.80556 2.66671 5.01667C2.66671 5.12778 2.68893 5.225 2.73337 5.30833C2.77782 5.39167 2.84449 5.45555 2.93337 5.5L7.65004 8.45C7.7056 8.48333 7.76393 8.50833 7.82504 8.525C7.88615 8.54167 7.94448 8.55 8.00004 8.55Z" fill="#CECECE"/>
</g>
</svg>
